<?xml version="1.0" encoding="UTF-8" standalone="no"?>
<!DOCTYPE svg PUBLIC "-//W3C//DTD SVG 1.1//EN"
 "http://www.w3.org/Graphics/SVG/1.1/DTD/svg11.dtd">
<!-- Generated by graphviz version 2.43.0 (0)
 -->
<!-- Title: Tree Pages: 1 -->
<svg width="690pt" height="790pt"
 viewBox="0.00 0.00 690.00 790.00" xmlns="http://www.w3.org/2000/svg" xmlns:xlink="http://www.w3.org/1999/xlink">
<g id="graph0" class="graph" transform="scale(1 1) rotate(0) translate(4 786)">
<title>Tree</title>
<polygon fill="white" stroke="transparent" points="-4,4 -4,-786 686,-786 686,4 -4,4"/>
<!-- 0 -->
<g id="node1" class="node">
<title>0</title>
<path fill="#fdfffd" stroke="black" d="M249.5,-782C249.5,-782 141.5,-782 141.5,-782 135.5,-782 129.5,-776 129.5,-770 129.5,-770 129.5,-711 129.5,-711 129.5,-705 135.5,-699 141.5,-699 141.5,-699 249.5,-699 249.5,-699 255.5,-699 261.5,-705 261.5,-711 261.5,-711 261.5,-770 261.5,-770 261.5,-776 255.5,-782 249.5,-782"/>
<text text-anchor="start" x="138" y="-766.8" font-family="Helvetica,sans-Serif" font-size="14.00">petal_length ≤ 2.45</text>
<text text-anchor="start" x="160" y="-751.8" font-family="Helvetica,sans-Serif" font-size="14.00">gini = 0.667</text>
<text text-anchor="start" x="150.5" y="-736.8" font-family="Helvetica,sans-Serif" font-size="14.00">samples = 120</text>
<text text-anchor="start" x="137.5" y="-721.8" font-family="Helvetica,sans-Serif" font-size="14.00">value = [40, 41, 39]</text>
<text text-anchor="start" x="143" y="-706.8" font-family="Helvetica,sans-Serif" font-size="14.00">class = versicolor</text>
</g>
<!-- 1 -->
<g id="node2" class="node">
<title>1</title>
<path fill="#e58139" stroke="black" d="M171,-655.5C171,-655.5 78,-655.5 78,-655.5 72,-655.5 66,-649.5 66,-643.5 66,-643.5 66,-599.5 66,-599.5 66,-593.5 72,-587.5 78,-587.5 78,-587.5 171,-587.5 171,-587.5 177,-587.5 183,-593.5 183,-599.5 183,-599.5 183,-643.5 183,-643.5 183,-649.5 177,-655.5 171,-655.5"/>
<text text-anchor="start" x="96.5" y="-640.3" font-family="Helvetica,sans-Serif" font-size="14.00">gini = 0.0</text>
<text text-anchor="start" x="83.5" y="-625.3" font-family="Helvetica,sans-Serif" font-size="14.00">samples = 40</text>
<text text-anchor="start" x="74" y="-610.3" font-family="Helvetica,sans-Serif" font-size="14.00">value = [40, 0, 0]</text>
<text text-anchor="start" x="81" y="-595.3" font-family="Helvetica,sans-Serif" font-size="14.00">class = setosa</text>
</g>
<!-- 0&#45;&gt;1 -->
<g id="edge1" class="edge">
<title>0&#45;&gt;1</title>
<path fill="none" stroke="black" d="M170.87,-698.91C164.1,-687.76 156.76,-675.66 149.95,-664.44"/>
<polygon fill="black" stroke="black" points="152.81,-662.4 144.63,-655.67 146.82,-666.03 152.81,-662.4"/>
<text text-anchor="middle" x="138.69" y="-676.25" font-family="Helvetica,sans-Serif" font-size="14.00">True</text>
</g>
<!-- 2 -->
<g id="node3" class="node">
<title>2</title>
<path fill="#f5fef9" stroke="black" d="M320,-663C320,-663 213,-663 213,-663 207,-663 201,-657 201,-651 201,-651 201,-592 201,-592 201,-586 207,-580 213,-580 213,-580 320,-580 320,-580 326,-580 332,-586 332,-592 332,-592 332,-651 332,-651 332,-657 326,-663 320,-663"/>
<text text-anchor="start" x="209" y="-647.8" font-family="Helvetica,sans-Serif" font-size="14.00">petal_length ≤ 4.75</text>
<text text-anchor="start" x="238.5" y="-632.8" font-family="Helvetica,sans-Serif" font-size="14.00">gini = 0.5</text>
<text text-anchor="start" x="225.5" y="-617.8" font-family="Helvetica,sans-Serif" font-size="14.00">samples = 80</text>
<text text-anchor="start" x="212" y="-602.8" font-family="Helvetica,sans-Serif" font-size="14.00">value = [0, 41, 39]</text>
<text text-anchor="start" x="214" y="-587.8" font-family="Helvetica,sans-Serif" font-size="14.00">class = versicolor</text>
</g>
<!-- 0&#45;&gt;2 -->
<g id="edge2" class="edge">
<title>0&#45;&gt;2</title>
<path fill="none" stroke="black" d="M220.13,-698.91C225.47,-690.1 231.18,-680.7 236.7,-671.61"/>
<polygon fill="black" stroke="black" points="239.71,-673.39 241.91,-663.02 233.73,-669.75 239.71,-673.39"/>
<text text-anchor="middle" x="247.85" y="-683.6" font-family="Helvetica,sans-Serif" font-size="14.00">False</text>
</g>
<!-- 3 -->
<g id="node4" class="node">
<title>3</title>
<path fill="#3ee684" stroke="black" d="M245.5,-544C245.5,-544 143.5,-544 143.5,-544 137.5,-544 131.5,-538 131.5,-532 131.5,-532 131.5,-473 131.5,-473 131.5,-467 137.5,-461 143.5,-461 143.5,-461 245.5,-461 245.5,-461 251.5,-461 257.5,-467 257.5,-473 257.5,-473 257.5,-532 257.5,-532 257.5,-538 251.5,-544 245.5,-544"/>
<text text-anchor="start" x="139.5" y="-528.8" font-family="Helvetica,sans-Serif" font-size="14.00">petal_width ≤ 1.65</text>
<text text-anchor="start" x="159" y="-513.8" font-family="Helvetica,sans-Serif" font-size="14.00">gini = 0.053</text>
<text text-anchor="start" x="153.5" y="-498.8" font-family="Helvetica,sans-Serif" font-size="14.00">samples = 37</text>
<text text-anchor="start" x="144" y="-483.8" font-family="Helvetica,sans-Serif" font-size="14.00">value = [0, 36, 1]</text>
<text text-anchor="start" x="142" y="-468.8" font-family="Helvetica,sans-Serif" font-size="14.00">class = versicolor</text>
</g>
<!-- 2&#45;&gt;3 -->
<g id="edge3" class="edge">
<title>2&#45;&gt;3</title>
<path fill="none" stroke="black" d="M241.52,-579.91C236.1,-571.1 230.32,-561.7 224.72,-552.61"/>
<polygon fill="black" stroke="black" points="227.66,-550.7 219.44,-544.02 221.7,-554.37 227.66,-550.7"/>
</g>
<!-- 6 -->
<g id="node7" class="node">
<title>6</title>
<path fill="#9253e8" stroke="black" d="M389.5,-544C389.5,-544 287.5,-544 287.5,-544 281.5,-544 275.5,-538 275.5,-532 275.5,-532 275.5,-473 275.5,-473 275.5,-467 281.5,-461 287.5,-461 287.5,-461 389.5,-461 389.5,-461 395.5,-461 401.5,-467 401.5,-473 401.5,-473 401.5,-532 401.5,-532 401.5,-538 395.5,-544 389.5,-544"/>
<text text-anchor="start" x="283.5" y="-528.8" font-family="Helvetica,sans-Serif" font-size="14.00">petal_width ≤ 1.75</text>
<text text-anchor="start" x="303" y="-513.8" font-family="Helvetica,sans-Serif" font-size="14.00">gini = 0.206</text>
<text text-anchor="start" x="297.5" y="-498.8" font-family="Helvetica,sans-Serif" font-size="14.00">samples = 43</text>
<text text-anchor="start" x="288" y="-483.8" font-family="Helvetica,sans-Serif" font-size="14.00">value = [0, 5, 38]</text>
<text text-anchor="start" x="290" y="-468.8" font-family="Helvetica,sans-Serif" font-size="14.00">class = virginica</text>
</g>
<!-- 2&#45;&gt;6 -->
<g id="edge6" class="edge">
<title>2&#45;&gt;6</title>
<path fill="none" stroke="black" d="M291.48,-579.91C296.9,-571.1 302.68,-561.7 308.28,-552.61"/>
<polygon fill="black" stroke="black" points="311.3,-554.37 313.56,-544.02 305.34,-550.7 311.3,-554.37"/>
</g>
<!-- 4 -->
<g id="node5" class="node">
<title>4</title>
<path fill="#39e581" stroke="black" d="M109,-417.5C109,-417.5 12,-417.5 12,-417.5 6,-417.5 0,-411.5 0,-405.5 0,-405.5 0,-361.5 0,-361.5 0,-355.5 6,-349.5 12,-349.5 12,-349.5 109,-349.5 109,-349.5 115,-349.5 121,-355.5 121,-361.5 121,-361.5 121,-405.5 121,-405.5 121,-411.5 115,-417.5 109,-417.5"/>
<text text-anchor="start" x="32.5" y="-402.3" font-family="Helvetica,sans-Serif" font-size="14.00">gini = 0.0</text>
<text text-anchor="start" x="19.5" y="-387.3" font-family="Helvetica,sans-Serif" font-size="14.00">samples = 36</text>
<text text-anchor="start" x="10" y="-372.3" font-family="Helvetica,sans-Serif" font-size="14.00">value = [0, 36, 0]</text>
<text text-anchor="start" x="8" y="-357.3" font-family="Helvetica,sans-Serif" font-size="14.00">class = versicolor</text>
</g>
<!-- 3&#45;&gt;4 -->
<g id="edge4" class="edge">
<title>3&#45;&gt;4</title>
<path fill="none" stroke="black" d="M148.01,-460.91C134.49,-449.1 119.73,-436.22 106.25,-424.45"/>
<polygon fill="black" stroke="black" points="108.32,-421.61 98.49,-417.67 103.72,-426.88 108.32,-421.61"/>
</g>
<!-- 5 -->
<g id="node6" class="node">
<title>5</title>
<path fill="#8139e5" stroke="black" d="M240,-417.5C240,-417.5 151,-417.5 151,-417.5 145,-417.5 139,-411.5 139,-405.5 139,-405.5 139,-361.5 139,-361.5 139,-355.5 145,-349.5 151,-349.5 151,-349.5 240,-349.5 240,-349.5 246,-349.5 252,-355.5 252,-361.5 252,-361.5 252,-405.5 252,-405.5 252,-411.5 246,-417.5 240,-417.5"/>
<text text-anchor="start" x="167.5" y="-402.3" font-family="Helvetica,sans-Serif" font-size="14.00">gini = 0.0</text>
<text text-anchor="start" x="158" y="-387.3" font-family="Helvetica,sans-Serif" font-size="14.00">samples = 1</text>
<text text-anchor="start" x="148.5" y="-372.3" font-family="Helvetica,sans-Serif" font-size="14.00">value = [0, 0, 1]</text>
<text text-anchor="start" x="147" y="-357.3" font-family="Helvetica,sans-Serif" font-size="14.00">class = virginica</text>
</g>
<!-- 3&#45;&gt;5 -->
<g id="edge5" class="edge">
<title>3&#45;&gt;5</title>
<path fill="none" stroke="black" d="M194.85,-460.91C194.94,-450.2 195.04,-438.62 195.13,-427.78"/>
<polygon fill="black" stroke="black" points="198.63,-427.7 195.22,-417.67 191.63,-427.64 198.63,-427.7"/>
</g>
<!-- 7 -->
<g id="node8" class="node">
<title>7</title>
<path fill="#ffffff" stroke="black" d="M391,-425C391,-425 284,-425 284,-425 278,-425 272,-419 272,-413 272,-413 272,-354 272,-354 272,-348 278,-342 284,-342 284,-342 391,-342 391,-342 397,-342 403,-348 403,-354 403,-354 403,-413 403,-413 403,-419 397,-425 391,-425"/>
<text text-anchor="start" x="280" y="-409.8" font-family="Helvetica,sans-Serif" font-size="14.00">petal_length ≤ 4.95</text>
<text text-anchor="start" x="309.5" y="-394.8" font-family="Helvetica,sans-Serif" font-size="14.00">gini = 0.5</text>
<text text-anchor="start" x="300" y="-379.8" font-family="Helvetica,sans-Serif" font-size="14.00">samples = 8</text>
<text text-anchor="start" x="290.5" y="-364.8" font-family="Helvetica,sans-Serif" font-size="14.00">value = [0, 4, 4]</text>
<text text-anchor="start" x="285" y="-349.8" font-family="Helvetica,sans-Serif" font-size="14.00">class = versicolor</text>
</g>
<!-- 6&#45;&gt;7 -->
<g id="edge7" class="edge">
<title>6&#45;&gt;7</title>
<path fill="none" stroke="black" d="M338.15,-460.91C338.08,-452.65 338.01,-443.86 337.93,-435.3"/>
<polygon fill="black" stroke="black" points="341.43,-434.99 337.85,-425.02 334.43,-435.05 341.43,-434.99"/>
</g>
<!-- 14 -->
<g id="node15" class="node">
<title>14</title>
<path fill="#853fe6" stroke="black" d="M540,-425C540,-425 433,-425 433,-425 427,-425 421,-419 421,-413 421,-413 421,-354 421,-354 421,-348 427,-342 433,-342 433,-342 540,-342 540,-342 546,-342 552,-348 552,-354 552,-354 552,-413 552,-413 552,-419 546,-425 540,-425"/>
<text text-anchor="start" x="429" y="-409.8" font-family="Helvetica,sans-Serif" font-size="14.00">petal_length ≤ 4.85</text>
<text text-anchor="start" x="451" y="-394.8" font-family="Helvetica,sans-Serif" font-size="14.00">gini = 0.056</text>
<text text-anchor="start" x="445.5" y="-379.8" font-family="Helvetica,sans-Serif" font-size="14.00">samples = 35</text>
<text text-anchor="start" x="436" y="-364.8" font-family="Helvetica,sans-Serif" font-size="14.00">value = [0, 1, 34]</text>
<text text-anchor="start" x="438" y="-349.8" font-family="Helvetica,sans-Serif" font-size="14.00">class = virginica</text>
</g>
<!-- 6&#45;&gt;14 -->
<g id="edge14" class="edge">
<title>6&#45;&gt;14</title>
<path fill="none" stroke="black" d="M389.85,-460.91C401.9,-451.38 414.84,-441.15 427.21,-431.37"/>
<polygon fill="black" stroke="black" points="429.57,-433.97 435.24,-425.02 425.23,-428.48 429.57,-433.97"/>
</g>
<!-- 8 -->
<g id="node9" class="node">
<title>8</title>
<path fill="#39e581" stroke="black" d="M246,-298.5C246,-298.5 149,-298.5 149,-298.5 143,-298.5 137,-292.5 137,-286.5 137,-286.5 137,-242.5 137,-242.5 137,-236.5 143,-230.5 149,-230.5 149,-230.5 246,-230.5 246,-230.5 252,-230.5 258,-236.5 258,-242.5 258,-242.5 258,-286.5 258,-286.5 258,-292.5 252,-298.5 246,-298.5"/>
<text text-anchor="start" x="169.5" y="-283.3" font-family="Helvetica,sans-Serif" font-size="14.00">gini = 0.0</text>
<text text-anchor="start" x="160" y="-268.3" font-family="Helvetica,sans-Serif" font-size="14.00">samples = 2</text>
<text text-anchor="start" x="150.5" y="-253.3" font-family="Helvetica,sans-Serif" font-size="14.00">value = [0, 2, 0]</text>
<text text-anchor="start" x="145" y="-238.3" font-family="Helvetica,sans-Serif" font-size="14.00">class = versicolor</text>
</g>
<!-- 7&#45;&gt;8 -->
<g id="edge8" class="edge">
<title>7&#45;&gt;8</title>
<path fill="none" stroke="black" d="M288.93,-341.91C274.67,-329.99 259.09,-316.98 244.91,-305.12"/>
<polygon fill="black" stroke="black" points="247.1,-302.39 237.19,-298.67 242.62,-307.77 247.1,-302.39"/>
</g>
<!-- 9 -->
<g id="node10" class="node">
<title>9</title>
<path fill="#c09cf2" stroke="black" d="M390.5,-306C390.5,-306 288.5,-306 288.5,-306 282.5,-306 276.5,-300 276.5,-294 276.5,-294 276.5,-235 276.5,-235 276.5,-229 282.5,-223 288.5,-223 288.5,-223 390.5,-223 390.5,-223 396.5,-223 402.5,-229 402.5,-235 402.5,-235 402.5,-294 402.5,-294 402.5,-300 396.5,-306 390.5,-306"/>
<text text-anchor="start" x="284.5" y="-290.8" font-family="Helvetica,sans-Serif" font-size="14.00">petal_width ≤ 1.55</text>
<text text-anchor="start" x="304" y="-275.8" font-family="Helvetica,sans-Serif" font-size="14.00">gini = 0.444</text>
<text text-anchor="start" x="302" y="-260.8" font-family="Helvetica,sans-Serif" font-size="14.00">samples = 6</text>
<text text-anchor="start" x="292.5" y="-245.8" font-family="Helvetica,sans-Serif" font-size="14.00">value = [0, 2, 4]</text>
<text text-anchor="start" x="291" y="-230.8" font-family="Helvetica,sans-Serif" font-size="14.00">class = virginica</text>
</g>
<!-- 7&#45;&gt;9 -->
<g id="edge9" class="edge">
<title>7&#45;&gt;9</title>
<path fill="none" stroke="black" d="M338.19,-341.91C338.34,-333.56 338.49,-324.67 338.64,-316.02"/>
<polygon fill="black" stroke="black" points="342.14,-316.08 338.81,-306.02 335.14,-315.96 342.14,-316.08"/>
</g>
<!-- 10 -->
<g id="node11" class="node">
<title>10</title>
<path fill="#8139e5" stroke="black" d="M245,-179.5C245,-179.5 156,-179.5 156,-179.5 150,-179.5 144,-173.5 144,-167.5 144,-167.5 144,-123.5 144,-123.5 144,-117.5 150,-111.5 156,-111.5 156,-111.5 245,-111.5 245,-111.5 251,-111.5 257,-117.5 257,-123.5 257,-123.5 257,-167.5 257,-167.5 257,-173.5 251,-179.5 245,-179.5"/>
<text text-anchor="start" x="172.5" y="-164.3" font-family="Helvetica,sans-Serif" font-size="14.00">gini = 0.0</text>
<text text-anchor="start" x="163" y="-149.3" font-family="Helvetica,sans-Serif" font-size="14.00">samples = 3</text>
<text text-anchor="start" x="153.5" y="-134.3" font-family="Helvetica,sans-Serif" font-size="14.00">value = [0, 0, 3]</text>
<text text-anchor="start" x="152" y="-119.3" font-family="Helvetica,sans-Serif" font-size="14.00">class = virginica</text>
</g>
<!-- 9&#45;&gt;10 -->
<g id="edge10" class="edge">
<title>9&#45;&gt;10</title>
<path fill="none" stroke="black" d="M291.27,-222.91C277.12,-210.99 261.65,-197.98 247.57,-186.12"/>
<polygon fill="black" stroke="black" points="249.81,-183.43 239.9,-179.67 245.3,-188.78 249.81,-183.43"/>
</g>
<!-- 11 -->
<g id="node12" class="node">
<title>11</title>
<path fill="#9cf2c0" stroke="black" d="M394,-187C394,-187 287,-187 287,-187 281,-187 275,-181 275,-175 275,-175 275,-116 275,-116 275,-110 281,-104 287,-104 287,-104 394,-104 394,-104 400,-104 406,-110 406,-116 406,-116 406,-175 406,-175 406,-181 400,-187 394,-187"/>
<text text-anchor="start" x="283" y="-171.8" font-family="Helvetica,sans-Serif" font-size="14.00">petal_length ≤ 5.45</text>
<text text-anchor="start" x="305" y="-156.8" font-family="Helvetica,sans-Serif" font-size="14.00">gini = 0.444</text>
<text text-anchor="start" x="303" y="-141.8" font-family="Helvetica,sans-Serif" font-size="14.00">samples = 3</text>
<text text-anchor="start" x="293.5" y="-126.8" font-family="Helvetica,sans-Serif" font-size="14.00">value = [0, 2, 1]</text>
<text text-anchor="start" x="288" y="-111.8" font-family="Helvetica,sans-Serif" font-size="14.00">class = versicolor</text>
</g>
<!-- 9&#45;&gt;11 -->
<g id="edge11" class="edge">
<title>9&#45;&gt;11</title>
<path fill="none" stroke="black" d="M339.85,-222.91C339.92,-214.65 339.99,-205.86 340.07,-197.3"/>
<polygon fill="black" stroke="black" points="343.57,-197.05 340.15,-187.02 336.57,-196.99 343.57,-197.05"/>
</g>
<!-- 12 -->
<g id="node13" class="node">
<title>12</title>
<path fill="#39e581" stroke="black" d="M322,-68C322,-68 225,-68 225,-68 219,-68 213,-62 213,-56 213,-56 213,-12 213,-12 213,-6 219,0 225,0 225,0 322,0 322,0 328,0 334,-6 334,-12 334,-12 334,-56 334,-56 334,-62 328,-68 322,-68"/>
<text text-anchor="start" x="245.5" y="-52.8" font-family="Helvetica,sans-Serif" font-size="14.00">gini = 0.0</text>
<text text-anchor="start" x="236" y="-37.8" font-family="Helvetica,sans-Serif" font-size="14.00">samples = 2</text>
<text text-anchor="start" x="226.5" y="-22.8" font-family="Helvetica,sans-Serif" font-size="14.00">value = [0, 2, 0]</text>
<text text-anchor="start" x="221" y="-7.8" font-family="Helvetica,sans-Serif" font-size="14.00">class = versicolor</text>
</g>
<!-- 11&#45;&gt;12 -->
<g id="edge12" class="edge">
<title>11&#45;&gt;12</title>
<path fill="none" stroke="black" d="M315.55,-103.73C310.19,-94.97 304.52,-85.7 299.14,-76.91"/>
<polygon fill="black" stroke="black" points="302.08,-75 293.88,-68.3 296.11,-78.66 302.08,-75"/>
</g>
<!-- 13 -->
<g id="node14" class="node">
<title>13</title>
<path fill="#8139e5" stroke="black" d="M453,-68C453,-68 364,-68 364,-68 358,-68 352,-62 352,-56 352,-56 352,-12 352,-12 352,-6 358,0 364,0 364,0 453,0 453,0 459,0 465,-6 465,-12 465,-12 465,-56 465,-56 465,-62 459,-68 453,-68"/>
<text text-anchor="start" x="380.5" y="-52.8" font-family="Helvetica,sans-Serif" font-size="14.00">gini = 0.0</text>
<text text-anchor="start" x="371" y="-37.8" font-family="Helvetica,sans-Serif" font-size="14.00">samples = 1</text>
<text text-anchor="start" x="361.5" y="-22.8" font-family="Helvetica,sans-Serif" font-size="14.00">value = [0, 0, 1]</text>
<text text-anchor="start" x="360" y="-7.8" font-family="Helvetica,sans-Serif" font-size="14.00">class = virginica</text>
</g>
<!-- 11&#45;&gt;13 -->
<g id="edge13" class="edge">
<title>11&#45;&gt;13</title>
<path fill="none" stroke="black" d="M365.82,-103.73C371.26,-94.97 377.01,-85.7 382.48,-76.91"/>
<polygon fill="black" stroke="black" points="385.52,-78.64 387.82,-68.3 379.57,-74.95 385.52,-78.64"/>
</g>
<!-- 15 -->
<g id="node16" class="node">
<title>15</title>
<path fill="#c09cf2" stroke="black" d="M534.5,-306C534.5,-306 436.5,-306 436.5,-306 430.5,-306 424.5,-300 424.5,-294 424.5,-294 424.5,-235 424.5,-235 424.5,-229 430.5,-223 436.5,-223 436.5,-223 534.5,-223 534.5,-223 540.5,-223 546.5,-229 546.5,-235 546.5,-235 546.5,-294 546.5,-294 546.5,-300 540.5,-306 534.5,-306"/>
<text text-anchor="start" x="432.5" y="-290.8" font-family="Helvetica,sans-Serif" font-size="14.00">sepal_width ≤ 3.1</text>
<text text-anchor="start" x="450" y="-275.8" font-family="Helvetica,sans-Serif" font-size="14.00">gini = 0.444</text>
<text text-anchor="start" x="448" y="-260.8" font-family="Helvetica,sans-Serif" font-size="14.00">samples = 3</text>
<text text-anchor="start" x="438.5" y="-245.8" font-family="Helvetica,sans-Serif" font-size="14.00">value = [0, 1, 2]</text>
<text text-anchor="start" x="437" y="-230.8" font-family="Helvetica,sans-Serif" font-size="14.00">class = virginica</text>
</g>
<!-- 14&#45;&gt;15 -->
<g id="edge15" class="edge">
<title>14&#45;&gt;15</title>
<path fill="none" stroke="black" d="M486.15,-341.91C486.08,-333.65 486.01,-324.86 485.93,-316.3"/>
<polygon fill="black" stroke="black" points="489.43,-315.99 485.85,-306.02 482.43,-316.05 489.43,-315.99"/>
</g>
<!-- 18 -->
<g id="node19" class="node">
<title>18</title>
<path fill="#8139e5" stroke="black" d="M670,-298.5C670,-298.5 577,-298.5 577,-298.5 571,-298.5 565,-292.5 565,-286.5 565,-286.5 565,-242.5 565,-242.5 565,-236.5 571,-230.5 577,-230.5 577,-230.5 670,-230.5 670,-230.5 676,-230.5 682,-236.5 682,-242.5 682,-242.5 682,-286.5 682,-286.5 682,-292.5 676,-298.5 670,-298.5"/>
<text text-anchor="start" x="595.5" y="-283.3" font-family="Helvetica,sans-Serif" font-size="14.00">gini = 0.0</text>
<text text-anchor="start" x="582.5" y="-268.3" font-family="Helvetica,sans-Serif" font-size="14.00">samples = 32</text>
<text text-anchor="start" x="573" y="-253.3" font-family="Helvetica,sans-Serif" font-size="14.00">value = [0, 0, 32]</text>
<text text-anchor="start" x="575" y="-238.3" font-family="Helvetica,sans-Serif" font-size="14.00">class = virginica</text>
</g>
<!-- 14&#45;&gt;18 -->
<g id="edge18" class="edge">
<title>14&#45;&gt;18</title>
<path fill="none" stroke="black" d="M534.03,-341.91C547.86,-330.1 562.94,-317.22 576.72,-305.45"/>
<polygon fill="black" stroke="black" points="579.33,-307.82 584.66,-298.67 574.79,-302.5 579.33,-307.82"/>
</g>
<!-- 16 -->
<g id="node17" class="node">
<title>16</title>
<path fill="#8139e5" stroke="black" d="M529,-179.5C529,-179.5 440,-179.5 440,-179.5 434,-179.5 428,-173.5 428,-167.5 428,-167.5 428,-123.5 428,-123.5 428,-117.5 434,-111.5 440,-111.5 440,-111.5 529,-111.5 529,-111.5 535,-111.5 541,-117.5 541,-123.5 541,-123.5 541,-167.5 541,-167.5 541,-173.5 535,-179.5 529,-179.5"/>
<text text-anchor="start" x="456.5" y="-164.3" font-family="Helvetica,sans-Serif" font-size="14.00">gini = 0.0</text>
<text text-anchor="start" x="447" y="-149.3" font-family="Helvetica,sans-Serif" font-size="14.00">samples = 2</text>
<text text-anchor="start" x="437.5" y="-134.3" font-family="Helvetica,sans-Serif" font-size="14.00">value = [0, 0, 2]</text>
<text text-anchor="start" x="436" y="-119.3" font-family="Helvetica,sans-Serif" font-size="14.00">class = virginica</text>
</g>
<!-- 15&#45;&gt;16 -->
<g id="edge16" class="edge">
<title>15&#45;&gt;16</title>
<path fill="none" stroke="black" d="M485.15,-222.91C485.06,-212.2 484.96,-200.62 484.87,-189.78"/>
<polygon fill="black" stroke="black" points="488.37,-189.64 484.78,-179.67 481.37,-189.7 488.37,-189.64"/>
</g>
<!-- 17 -->
<g id="node18" class="node">
<title>17</title>
<path fill="#39e581" stroke="black" d="M668,-179.5C668,-179.5 571,-179.5 571,-179.5 565,-179.5 559,-173.5 559,-167.5 559,-167.5 559,-123.5 559,-123.5 559,-117.5 565,-111.5 571,-111.5 571,-111.5 668,-111.5 668,-111.5 674,-111.5 680,-117.5 680,-123.5 680,-123.5 680,-167.5 680,-167.5 680,-173.5 674,-179.5 668,-179.5"/>
<text text-anchor="start" x="591.5" y="-164.3" font-family="Helvetica,sans-Serif" font-size="14.00">gini = 0.0</text>
<text text-anchor="start" x="582" y="-149.3" font-family="Helvetica,sans-Serif" font-size="14.00">samples = 1</text>
<text text-anchor="start" x="572.5" y="-134.3" font-family="Helvetica,sans-Serif" font-size="14.00">value = [0, 1, 0]</text>
<text text-anchor="start" x="567" y="-119.3" font-family="Helvetica,sans-Serif" font-size="14.00">class = versicolor</text>
</g>
<!-- 15&#45;&gt;17 -->
<g id="edge17" class="edge">
<title>15&#45;&gt;17</title>
<path fill="none" stroke="black" d="M531.99,-222.91C545.51,-211.1 560.27,-198.22 573.75,-186.45"/>
<polygon fill="black" stroke="black" points="576.28,-188.88 581.51,-179.67 571.68,-183.61 576.28,-188.88"/>
</g>
</g>
</svg>