<?xml version="1.0" encoding="UTF-8" standalone="no"?>
<!DOCTYPE svg PUBLIC "-//W3C//DTD SVG 1.1//EN"
 "http://www.w3.org/Graphics/SVG/1.1/DTD/svg11.dtd">
<!-- Generated by graphviz version 2.43.0 (0)
 -->
<!-- Title: Tree Pages: 1 -->
<svg width="437pt" height="433pt"
 viewBox="0.00 0.00 437.00 433.00" xmlns="http://www.w3.org/2000/svg" xmlns:xlink="http://www.w3.org/1999/xlink">
<g id="graph0" class="graph" transform="scale(1 1) rotate(0) translate(4 429)">
<title>Tree</title>
<polygon fill="white" stroke="transparent" points="-4,4 -4,-429 433,-429 433,4 -4,4"/>
<!-- 0 -->
<g id="node1" class="node">
<title>0</title>
<path fill="#d0e8f9" stroke="black" d="M358,-425C358,-425 244,-425 244,-425 238,-425 232,-419 232,-413 232,-413 232,-354 232,-354 232,-348 238,-342 244,-342 244,-342 358,-342 358,-342 364,-342 370,-348 370,-354 370,-354 370,-413 370,-413 370,-419 364,-425 358,-425"/>
<text text-anchor="start" x="240" y="-409.8" font-family="Helvetica,sans-Serif" font-size="14.00">Hemoglobin ≤ 0.665</text>
<text text-anchor="start" x="265.5" y="-394.8" font-family="Helvetica,sans-Serif" font-size="14.00">gini = 0.491</text>
<text text-anchor="start" x="252.5" y="-379.8" font-family="Helvetica,sans-Serif" font-size="14.00">samples = 1136</text>
<text text-anchor="start" x="246.5" y="-364.8" font-family="Helvetica,sans-Serif" font-size="14.00">value = [492, 644]</text>
<text text-anchor="start" x="254.5" y="-349.8" font-family="Helvetica,sans-Serif" font-size="14.00">class = Anemia</text>
</g>
<!-- 1 -->
<g id="node2" class="node">
<title>1</title>
<path fill="#eca26d" stroke="black" d="M289,-306C289,-306 167,-306 167,-306 161,-306 155,-300 155,-294 155,-294 155,-235 155,-235 155,-229 161,-223 167,-223 167,-223 289,-223 289,-223 295,-223 301,-229 301,-235 301,-235 301,-294 301,-294 301,-300 295,-306 289,-306"/>
<text text-anchor="start" x="188" y="-290.8" font-family="Helvetica,sans-Serif" font-size="14.00">Gender ≤ 0.5</text>
<text text-anchor="start" x="192.5" y="-275.8" font-family="Helvetica,sans-Serif" font-size="14.00">gini = 0.329</text>
<text text-anchor="start" x="183" y="-260.8" font-family="Helvetica,sans-Serif" font-size="14.00">samples = 621</text>
<text text-anchor="start" x="173.5" y="-245.8" font-family="Helvetica,sans-Serif" font-size="14.00">value = [492, 129]</text>
<text text-anchor="start" x="163" y="-230.8" font-family="Helvetica,sans-Serif" font-size="14.00">class = Tidak Anemia</text>
</g>
<!-- 0&#45;&gt;1 -->
<g id="edge1" class="edge">
<title>0&#45;&gt;1</title>
<path fill="none" stroke="black" d="M275.67,-341.91C270.18,-333.1 264.31,-323.7 258.64,-314.61"/>
<polygon fill="black" stroke="black" points="261.55,-312.65 253.28,-306.02 255.61,-316.36 261.55,-312.65"/>
<text text-anchor="middle" x="247.64" y="-326.68" font-family="Helvetica,sans-Serif" font-size="14.00">True</text>
</g>
<!-- 6 -->
<g id="node7" class="node">
<title>6</title>
<path fill="#399de5" stroke="black" d="M417,-298.5C417,-298.5 331,-298.5 331,-298.5 325,-298.5 319,-292.5 319,-286.5 319,-286.5 319,-242.5 319,-242.5 319,-236.5 325,-230.5 331,-230.5 331,-230.5 417,-230.5 417,-230.5 423,-230.5 429,-236.5 429,-242.5 429,-242.5 429,-286.5 429,-286.5 429,-292.5 423,-298.5 417,-298.5"/>
<text text-anchor="start" x="346" y="-283.3" font-family="Helvetica,sans-Serif" font-size="14.00">gini = 0.0</text>
<text text-anchor="start" x="329" y="-268.3" font-family="Helvetica,sans-Serif" font-size="14.00">samples = 515</text>
<text text-anchor="start" x="327" y="-253.3" font-family="Helvetica,sans-Serif" font-size="14.00">value = [0, 515]</text>
<text text-anchor="start" x="327.5" y="-238.3" font-family="Helvetica,sans-Serif" font-size="14.00">class = Anemia</text>
</g>
<!-- 0&#45;&gt;6 -->
<g id="edge6" class="edge">
<title>0&#45;&gt;6</title>
<path fill="none" stroke="black" d="M326.33,-341.91C333.28,-330.76 340.83,-318.66 347.83,-307.44"/>
<polygon fill="black" stroke="black" points="350.98,-309 353.31,-298.67 345.04,-305.3 350.98,-309"/>
<text text-anchor="middle" x="358.95" y="-319.32" font-family="Helvetica,sans-Serif" font-size="14.00">False</text>
</g>
<!-- 2 -->
<g id="node3" class="node">
<title>2</title>
<path fill="#f9e4d4" stroke="black" d="M207,-187C207,-187 85,-187 85,-187 79,-187 73,-181 73,-175 73,-175 73,-116 73,-116 73,-110 79,-104 85,-104 85,-104 207,-104 207,-104 213,-104 219,-110 219,-116 219,-116 219,-175 219,-175 219,-181 213,-187 207,-187"/>
<text text-anchor="start" x="85" y="-171.8" font-family="Helvetica,sans-Serif" font-size="14.00">Hemoglobin ≤ 0.519</text>
<text text-anchor="start" x="110.5" y="-156.8" font-family="Helvetica,sans-Serif" font-size="14.00">gini = 0.493</text>
<text text-anchor="start" x="101" y="-141.8" font-family="Helvetica,sans-Serif" font-size="14.00">samples = 294</text>
<text text-anchor="start" x="91.5" y="-126.8" font-family="Helvetica,sans-Serif" font-size="14.00">value = [165, 129]</text>
<text text-anchor="start" x="81" y="-111.8" font-family="Helvetica,sans-Serif" font-size="14.00">class = Tidak Anemia</text>
</g>
<!-- 1&#45;&gt;2 -->
<g id="edge2" class="edge">
<title>1&#45;&gt;2</title>
<path fill="none" stroke="black" d="M199.55,-222.91C193.32,-214.01 186.66,-204.51 180.22,-195.33"/>
<polygon fill="black" stroke="black" points="183,-193.2 174.4,-187.02 177.27,-197.22 183,-193.2"/>
</g>
<!-- 5 -->
<g id="node6" class="node">
<title>5</title>
<path fill="#e58139" stroke="black" d="M371,-179.5C371,-179.5 249,-179.5 249,-179.5 243,-179.5 237,-173.5 237,-167.5 237,-167.5 237,-123.5 237,-123.5 237,-117.5 243,-111.5 249,-111.5 249,-111.5 371,-111.5 371,-111.5 377,-111.5 383,-117.5 383,-123.5 383,-123.5 383,-167.5 383,-167.5 383,-173.5 377,-179.5 371,-179.5"/>
<text text-anchor="start" x="282" y="-164.3" font-family="Helvetica,sans-Serif" font-size="14.00">gini = 0.0</text>
<text text-anchor="start" x="265" y="-149.3" font-family="Helvetica,sans-Serif" font-size="14.00">samples = 327</text>
<text text-anchor="start" x="263" y="-134.3" font-family="Helvetica,sans-Serif" font-size="14.00">value = [327, 0]</text>
<text text-anchor="start" x="245" y="-119.3" font-family="Helvetica,sans-Serif" font-size="14.00">class = Tidak Anemia</text>
</g>
<!-- 1&#45;&gt;5 -->
<g id="edge5" class="edge">
<title>1&#45;&gt;5</title>
<path fill="none" stroke="black" d="M256.45,-222.91C264.34,-211.65 272.91,-199.42 280.84,-188.11"/>
<polygon fill="black" stroke="black" points="283.88,-189.86 286.75,-179.67 278.15,-185.85 283.88,-189.86"/>
</g>
<!-- 3 -->
<g id="node4" class="node">
<title>3</title>
<path fill="#e58139" stroke="black" d="M134,-68C134,-68 12,-68 12,-68 6,-68 0,-62 0,-56 0,-56 0,-12 0,-12 0,-6 6,0 12,0 12,0 134,0 134,0 140,0 146,-6 146,-12 146,-12 146,-56 146,-56 146,-62 140,-68 134,-68"/>
<text text-anchor="start" x="45" y="-52.8" font-family="Helvetica,sans-Serif" font-size="14.00">gini = 0.0</text>
<text text-anchor="start" x="28" y="-37.8" font-family="Helvetica,sans-Serif" font-size="14.00">samples = 165</text>
<text text-anchor="start" x="26" y="-22.8" font-family="Helvetica,sans-Serif" font-size="14.00">value = [165, 0]</text>
<text text-anchor="start" x="8" y="-7.8" font-family="Helvetica,sans-Serif" font-size="14.00">class = Tidak Anemia</text>
</g>
<!-- 2&#45;&gt;3 -->
<g id="edge3" class="edge">
<title>2&#45;&gt;3</title>
<path fill="none" stroke="black" d="M118.82,-103.73C112.92,-94.88 106.67,-85.51 100.75,-76.63"/>
<polygon fill="black" stroke="black" points="103.66,-74.68 95.2,-68.3 97.83,-78.56 103.66,-74.68"/>
</g>
<!-- 4 -->
<g id="node5" class="node">
<title>4</title>
<path fill="#399de5" stroke="black" d="M262,-68C262,-68 176,-68 176,-68 170,-68 164,-62 164,-56 164,-56 164,-12 164,-12 164,-6 170,0 176,0 176,0 262,0 262,0 268,0 274,-6 274,-12 274,-12 274,-56 274,-56 274,-62 268,-68 262,-68"/>
<text text-anchor="start" x="191" y="-52.8" font-family="Helvetica,sans-Serif" font-size="14.00">gini = 0.0</text>
<text text-anchor="start" x="174" y="-37.8" font-family="Helvetica,sans-Serif" font-size="14.00">samples = 129</text>
<text text-anchor="start" x="172" y="-22.8" font-family="Helvetica,sans-Serif" font-size="14.00">value = [0, 129]</text>
<text text-anchor="start" x="172.5" y="-7.8" font-family="Helvetica,sans-Serif" font-size="14.00">class = Anemia</text>
</g>
<!-- 2&#45;&gt;4 -->
<g id="edge4" class="edge">
<title>2&#45;&gt;4</title>
<path fill="none" stroke="black" d="M173.18,-103.73C179.08,-94.88 185.33,-85.51 191.25,-76.63"/>
<polygon fill="black" stroke="black" points="194.17,-78.56 196.8,-68.3 188.34,-74.68 194.17,-78.56"/>
</g>
</g>
</svg>